#!OML:ASF I:\Random Stuff\random\construction\7_22_03\Session 2\subj1.ASF
:FULLY-SPECIFIED
:DEGREES
657
root 4.66301 17.6934 -7.83468 16.1738 -33.4098 -6.03132
lowerback 10.9883 -2.21011 -0.263018
upperback 5.13258 -3.10226 -4.00133
thorax -1.01137 -1.54449 -3.64308
lowerneck -21.3658 6.50037 1.30802
upperneck 44.7416 11.2355 -4.22246
head 23.2712 3.39082 0.151636
rclavicle -4.45278e-014 7.95139e-015
rhumerus -54.1283 32.2937 -69.8682
rradius 124.854
rwrist -42.452
rhand -21.3727 23.1668
rfingers 7.12502
rthumb 5.01446 -6.75387
lclavicle -4.45278e-014 7.95139e-015
lhumerus 0.381915 -46.3852 84.6087
lradius 44.2585
lwrist 15.3386
lhand -21.1837 49.6554
lfingers 7.12502
lthumb 5.19697 79.5716
rfemur -17.9535 1.59066 22.6158
rtibia 3.4191e-014
rfoot 0.0247584 8.45323
rtoes -32.052
lfemur -22.253 0.680047 -8.23188
ltibia 26.7232
lfoot -16.4801 9.64468
ltoes -26.1105
658
root 4.6703 17.6921 -7.82894 16.1251 -33.7744 -5.9358
lowerback 11.0077 -2.18961 -0.360931
upperback 5.07649 -3.08227 -3.83643
thorax -1.06557 -1.53738 -3.41572
lowerneck -21.3456 6.63102 1.40138
upperneck 44.6216 11.4569 -4.36533
head 23.2056 3.47466 0.114925
rclavicle -2.94201e-014 3.18055e-014
rhumerus -54.467 32.1741 -70.3978
rradius 124.705
rwrist -42.4092
rhand -21.0727 23.2896
rfingers 7.12502
rthumb 5.30415 -6.62399
lclavicle -2.94201e-014 3.18055e-014
lhumerus -0.0884888 -45.7875 85.0576
lradius 44.375
lwrist 15.1104
lhand -20.8691 48.9497
lfingers 7.12502
lthumb 5.50069 78.8583
rfemur -17.9992 1.88627 22.4171
rtibia -1.03368e-014
rfoot 0.0568916 8.46164
rtoes -31.9006
lfemur -22.1166 0.827522 -8.41781
ltibia 26.6945
lfoot -16.5055 9.78231
ltoes -26.2309
659
root 4.67763 17.69 -7.8246 16.1039 -34.1452 -5.81493
lowerback 10.9974 -2.19806 -0.468514
upperback 5.01538 -3.10125 -3.69074
thorax -1.11149 -1.54947 -3.19946
lowerneck -21.4052 6.63502 1.43562
upperneck 44.5883 11.477 -4.44867
head 23.2205 3.47562 0.0709205
rclavicle -6.59965e-014 -1.43125e-014
rhumerus -54.8055 32.2718 -70.9678
rradius 124.547
rwrist -42.3582
rhand -21.0958 23.444
rfingers 7.12502
rthumb 5.28182 -6.47022
lclavicle -6.59965e-014 -1.43125e-014
lhumerus -0.492811 -45.0046 85.4739
lradius 44.3065
lwrist 14.7984
lhand -20.7309 48.1172
lfingers 7.12502
lthumb 5.63412 78.0223
rfemur -18.1136 2.18615 22.1998
rtibia -2.22639e-014
rfoot 0.114327 8.47356
rtoes -31.8639
lfemur -22.041 0.961417 -8.62454
ltibia 26.6704
lfoot -16.5774 10.0699
ltoes -27.3205
660
root 4.68443 17.6884 -7.82134 16.1181 -34.4849 -5.72118
lowerback 10.9664 -2.20752 -0.536966
upperback 4.97159 -3.11677 -3.54681
thorax -1.12987 -1.55908 -3.00896
lowerneck -21.2969 6.77567 1.43224
upperneck 44.1456 11.7982 -4.73245
head 22.8514 3.58291 0.00346519
rclavicle 9.14409e-014 -3.33958e-014
rhumerus -55.1024 32.4107 -71.4395
rradius 124.428
rwrist -42.4897
rhand -21.0921 23.3427
rfingers 7.12502
rthumb 5.28546 -6.57134
lclavicle 9.14409e-014 -3.33958e-014
lhumerus -0.759485 -44.0709 85.9005
lradius 44.111
lwrist 14.4816
lhand -21.2457 47.5936
lfingers 7.12502
lthumb 5.13716 77.5113
rfemur -18.2421 2.46347 22.0133
rtibia -2.14687e-014
rfoot 0.224835 8.48515
rtoes -31.632
lfemur -22.017 1.20812 -8.81126
ltibia 26.6645
lfoot -16.6827 10.1536
ltoes -27.3646
661
root 4.69157 17.687 -7.81934 16.1714 -34.7792 -5.71764
lowerback 10.9623 -2.23615 -0.529566
upperback 4.94333 -3.14921 -3.36462
thorax -1.1492 -1.57629 -2.81885
lowerneck -21.3099 6.88278 1.41917
upperneck 43.9167 12.0198 -4.87396
head 22.6944 3.65443 -0.00865749
rclavicle 2.22639e-014 4.77083e-015
rhumerus -55.3279 32.6268 -71.7827
rradius 124.295
rwrist -42.5035
rhand -21.1161 23.0559
rfingers 7.12502
rthumb 5.26229 -6.85875
lclavicle 2.22639e-014 4.77083e-015
lhumerus -1.02163 -42.8801 86.3536
lradius 44.0026
lwrist 13.8556
lhand -21.86 46.7332
lfingers 7.12502
lthumb 4.54396 76.6644
rfemur -19.2212 2.7911 22.0463
rtibia 1.75443
rfoot -0.44889 8.14952
rtoes -31.1872
lfemur -21.9998 1.51382 -8.91006
ltibia 26.6625
lfoot -16.7191 10.1133
ltoes -27.1852
